Coordinates
version=1
nRows=17
nColumns=24
inDegrees=yes

Units are S.I. units (second, meters, Newtons, ...)
Angles are in degrees.

endheader
time	pelvis_tilt	pelvis_list	pelvis_rotation	pelvis_tx	pelvis_ty	pelvis_tz	hip_flexion_r	hip_adduction_r	hip_rotation_r	knee_angle_r	ankle_angle_r	subtalar_angle_r	mtp_angle_r	hip_flexion_l	hip_adduction_l	hip_rotation_l	knee_angle_l	ankle_angle_l	subtalar_angle_l	mtp_angle_l	lumbar_extension	lumbar_bending	lumbar_rotation
      4.99500000	    -10.09235695	     -9.05135932	      2.98916501	     -1.56192842	     -0.02529350	      0.49126731	     22.90845098	      9.03882331	     -7.67579038	    -18.13299115	     -4.20989346	     -4.84369030	      4.82339415	     17.35553201	     -9.71052727	      6.44197639	    -60.57252458	    -28.23793677	     -8.08607154	     24.79072434	      8.02505393	      8.37405321	     -5.86379337
      5.00000000	     -9.96353077	     -8.95361496	      2.98920162	     -1.55609998	     -0.02461754	      0.49222249	     22.27528162	      9.12317311	     -7.37370243	    -18.00717156	     -3.94805419	     -5.13459197	      4.61458881	     18.11031975	     -9.46123666	      6.46243985	    -61.46287097	    -27.72428033	     -9.43157959	     23.98940003	      7.82602415	      8.23111214	     -5.57050771
      5.00500000	     -9.84633272	     -8.80160036	      2.96533472	     -1.55029290	     -0.02389573	      0.49318648	     21.64947881	      9.15521926	     -7.05390663	    -17.87916601	     -3.70333020	     -5.41310521	      4.41049074	     18.84461484	     -9.15638066	      6.45514443	    -62.23150680	    -27.15327033	    -10.54256046	     23.34045674	      7.63645752	      8.03321470	     -5.23917794
      5.01000000	     -9.74401602	     -8.60739796	      2.93327860	     -1.54451706	     -0.02314241	      0.49414614	     21.03297898	      9.14081984	     -6.72436101	    -17.74177016	     -3.47520191	     -5.68601777	      4.21992963	     19.57013060	     -8.80464555	      6.44174008	    -62.88149014	    -26.53582624	    -11.41965154	     22.89622055	      7.45985772	      7.78914570	     -4.89203647
      5.01500000	     -9.66748922	     -8.39909990	      2.94508253	     -1.53874725	     -0.02237323	      0.49502613	     20.42333796	      9.08263450	     -6.43307358	    -17.56025007	     -3.23060138	     -5.86208694	      4.13305287	     20.31024478	     -8.41264131	      6.50202135	    -63.40494589	    -25.86046251	    -12.02949381	     22.82959525	      7.32508046	      7.51971038	     -4.62313329
      5.02000000	     -9.60392891	     -8.10987657	      2.91388535	     -1.53302528	     -0.02155651	      0.49591379	     19.83446637	      8.94943808	     -6.12298376	    -17.39982565	     -3.02636005	     -6.10231950	      3.99440445	     21.02434213	     -7.94799438	      6.47048783	    -63.80970861	    -25.19167713	    -12.53867708	     22.73552130	      7.18885110	      7.17809508	     -4.27750282
      5.02500000	     -9.54571605	     -7.80404404	      2.74776148	     -1.52731016	     -0.02073618	      0.49700382	     19.24411191	      8.85086634	     -5.66383100	    -17.23882352	     -2.84712928	     -6.37389874	      3.77746906	     21.69738794	     -7.55179722	      6.24303522	    -64.11857470	    -24.39977932	    -12.82384902	     22.57382569	      7.04335741	      6.83062226	     -3.76567091
      5.03000000	     -9.51667035	     -7.45085261	      2.74667972	     -1.52167229	     -0.01991441	      0.49784397	     18.68900907	      8.62304193	     -5.40856271	    -17.06183464	     -2.61972703	     -6.56892896	      3.70199427	     22.42026953	     -7.02216792	      6.19089880	    -64.31025749	    -23.66890912	    -12.99554098	     22.68273609	      6.94491943	      6.41093281	     -3.49492786
      5.03500000	     -9.50929760	     -7.06686682	      2.59046147	     -1.51601775	     -0.01906372	      0.49884875	     18.14518675	      8.40809917	     -4.97313494	    -16.87955645	     -2.44202234	     -6.71478713	      3.58887037	     23.08987318	     -6.53423146	      5.98646632	    -64.37380664	    -22.72055025	    -12.81548304	     22.91769465	      6.85483803	      5.98070187	     -3.01953616
      5.04000000	     -9.51276437	     -6.64915655	      2.49599227	     -1.51044361	     -0.01823255	      0.49975643	     17.63139535	      8.12443515	     -4.64312039	    -16.71514186	     -2.24330760	     -6.86016035	      3.51808438	     23.77381189	     -5.99728188	      5.79922550	    -64.34169472	    -21.82141359	    -12.58162909	     23.19494619	      6.77870499	      5.51197004	     -2.63601398
      5.04500000	     -9.53443441	     -6.22608241	      2.39402016	     -1.50488599	     -0.01741568	      0.50067003	     17.12906771	      7.82885372	     -4.32208211	    -16.52597209	     -2.04953136	     -6.96320374	      3.46478036	     24.45172226	     -5.46286087	      5.60547512	    -64.20634509	    -20.92660756	    -12.26640251	     23.50201862	      6.72060607	      5.02822474	     -2.26502755
      5.05000000	     -9.56749074	     -5.80744814	      2.28212006	     -1.49930055	     -0.01662621	      0.50158090	     16.62142146	      7.53450015	     -3.97589848	    -16.30387243	     -1.84659431	     -7.03111317	      3.41699850	     25.11997264	     -4.95583873	      5.38340497	    -63.98042461	    -20.02269819	    -11.82919823	     23.82126743	      6.68656241	      4.55456475	     -1.89108227
      5.05500000	     -9.60033060	     -5.37427346	      2.16299150	     -1.49381264	     -0.01587783	      0.50245721	     16.14372140	      7.21397030	     -3.68105675	    -16.12130993	     -1.63920116	     -7.08987359	      3.39134744	     25.77191946	     -4.44693422	      5.12593463	    -63.66711717	    -19.14836700	    -11.41812581	     24.11199445	      6.64088824	      4.07207530	     -1.52012965
      5.06000000	     -9.63686165	     -4.96752805	      2.02862602	     -1.48826300	     -0.01516286	      0.50334107	     15.64542644	      6.92028190	     -3.37456010	    -15.89143038	     -1.44284564	     -7.10947979	      3.35728897	     26.40346753	     -3.98857987	      4.85249153	    -63.27366133	    -18.29032110	    -10.95773679	     24.36752763	      6.61366753	      3.62267372	     -1.14036519
      5.06500000	     -9.66739705	     -4.57995629	      1.89345486	     -1.48276256	     -0.01451029	      0.50419362	     15.15005019	      6.63895907	     -3.09189094	    -15.66633661	     -1.24365751	     -7.12514647	      3.32680575	     27.01843601	     -3.56450069	      4.56252887	    -62.81010723	    -17.47809442	    -10.55727390	     24.55721118	      6.57887328	      3.19312353	     -0.77524361
      5.07000000	     -9.72135930	     -4.22165717	      1.83975706	     -1.47723274	     -0.01393719	      0.50491978	     14.65017415	      6.36081360	     -2.85675024	    -15.38113660	     -1.04374631	     -7.15851242	      3.29829930	     27.66005288	     -3.12859872	      4.35819376	    -62.28068985	    -16.86300107	    -10.35311860	     24.65011791	      6.58317404	      2.78296992	     -0.55105818
      5.07500000	     -9.74601656	     -3.87004580	      1.66351941	     -1.47169245	     -0.01340098	      0.50575709	     14.13258234	      6.11438309	     -2.55292593	    -15.12011126	     -0.83215675	     -7.13103081	      3.28611459	     28.22330483	     -2.78726995	      4.02056439	    -61.67063096	    -16.13269901	    -10.04795896	     24.76574935	      6.55650402	      2.40815351	     -0.15647510
